# xmcd
#
# Track frame offsets: 
#        150
#        19736
#        41990
#        65623
#        79963
#        100524
#        113576
#        130271
#        152183
#        167812
#        192427
#        206203
#        221860
#
# Disc length: 3187 seconds
#
# Revision: 0
# Processed by: cddbd v1.5.2PL0 Copyright (c) Steve Scherf et al.
# Submitted via: ExactAudioCopy v1.3
#
DISCID=bf0c710d
DTITLE=The Flaming Mudcats - Gave You What You Wanted
DYEAR=2011
DGENRE=Harmonica Blues
TTITLE0=Big City Mama
TTITLE1=Champagne, Diamonds And A Fast Car
TTITLE2=Gimme What You Got
TTITLE3=Mudcat Boogie
TTITLE4=Double D's
TTITLE5=Devil Chasing Me
TTITLE6=Five Star Lover
TTITLE7=Cool It Down
TTITLE8=Sugar Mama
TTITLE9=New Technology Blues
TTITLE10=Hate To Lose You
TTITLE11=I Wait For You
TTITLE12=Twenty Dollar Gig
EXTD=
EXTT0=
EXTT1=
EXTT2=
EXTT3=
EXTT4=
EXTT5=
EXTT6=
EXTT7=
EXTT8=
EXTT9=
EXTT10=
EXTT11=
EXTT12=
PLAYORDER=
